# xmcd
#
# Track frame offsets:
#	225
#	17425
#	33235
#	48338
#	65540
#	82492
#	98046
#	115287
#	131735
#	148165
#	163222
#	178888
#
# Disc length: 2615 seconds
#
# Revision: 1
# Processed by: cddbd v1.5.2PL0 Copyright (c) Steve Scherf et al.
# Submitted via: audiograbber 1.83.01
#
DISCID=ae0a340c
DTITLE=Nino De Angelo - Junges Blut
DYEAR=1900
DGENRE=Hits
TTITLE0=Ich sterbe nicht nochmal
TTITLE1=Süße Liebe
TTITLE2=Frau einer Nacht
TTITLE3=Engel und Teufel, Luisa
TTITLE4=Und ein Engel fliegt in die Nacht
TTITLE5=Die Erde stirbt
TTITLE6=Junges Blut
TTITLE7=Rivalen
TTITLE8=Zwei Augen
TTITLE9=Silbermond
TTITLE10=Vielleicht (seit Jimmy zu den Sternen ging)
TTITLE11=Spur deiner Liebe
EXTD=
EXTT0=
EXTT1=
EXTT2=
EXTT3=
EXTT4=
EXTT5=
EXTT6=
EXTT7=
EXTT8=
EXTT9=
EXTT10=
EXTT11=
PLAYORDER=
